<?xml version="1.0" standalone="no"?>
<!DOCTYPE svg PUBLIC "-//W3C//DTD SVG 20010904//EN"
 "http://www.w3.org/TR/2001/REC-SVG-20010904/DTD/svg10.dtd">
<svg version="1.0" xmlns="http://www.w3.org/2000/svg"
 width="1280.000000pt" height="960.000000pt" viewBox="0 0 1280.000000 960.000000"
 preserveAspectRatio="xMidYMid meet">
<g transform="translate(0.000000,960.000000) scale(0.100000,-0.100000)"
fill="#000000" stroke="none">
<path d="M5810 6906 c-61 -16 -109 -47 -160 -102 -90 -98 -99 -159 -100 -667
0 -295 -2 -338 -15 -344 -9 -3 -557 16 -1219 43 -1346 54 -1268 55 -1377 -18
-73 -49 -129 -117 -161 -195 -23 -58 -23 -59 -28 -650 -4 -455 -8 -595 -17
-605 -20 -19 -18 -262 2 -278 13 -11 15 -99 15 -685 l0 -672 -26 -28 c-18 -20
-24 -36 -22 -59 l3 -31 80 -3 c107 -4 125 1 125 36 0 17 -10 38 -25 52 l-25
23 0 328 c0 180 4 330 9 333 16 10 3075 -186 3090 -198 12 -9 13 -64 7 -346
l-6 -334 -25 -26 c-34 -35 -33 -77 1 -90 33 -13 135 -13 168 0 34 13 34 49 -1
90 l-26 32 6 690 7 689 24 32 c22 29 124 70 1073 435 576 221 1056 402 1066
402 21 0 21 3 7 -669 -9 -453 -9 -464 -30 -486 -13 -14 -20 -33 -18 -47 3 -22
8 -23 86 -26 l82 -3 0 26 c0 14 -9 38 -20 53 -19 27 -19 36 -9 597 6 314 15
575 19 580 5 6 11 56 15 113 6 78 4 109 -5 128 -11 20 -11 156 -1 762 12 782
12 783 -33 870 -24 46 -83 110 -130 139 -87 55 -46 52 -1211 89 -599 18 -1103
33 -1120 33 -16 0 -50 -6 -75 -13z m218 -85 c11 -7 12 -112 6 -605 -4 -337
-11 -599 -16 -602 -5 -3 -33 17 -62 44 -75 71 -154 108 -260 121 l-51 6 0 421
0 420 30 59 c33 64 82 109 141 130 43 16 191 20 212 6z m453 -18 c10 -10 -7
-1538 -18 -1556 -4 -7 -61 -8 -172 -3 -191 7 -191 7 -191 95 0 31 -8 81 -17
111 -14 48 -16 120 -14 565 1 281 4 577 8 659 l6 149 194 -5 c107 -3 198 -9
204 -15z m453 -13 c9 -9 -10 -1546 -20 -1562 -7 -11 -361 -2 -391 9 -13 5 -14
99 -9 727 6 672 10 818 23 839 6 11 385 -2 397 -13z m431 -9 c29 -7 30 -8 30
-72 0 -282 -17 -1460 -22 -1483 l-5 -29 -190 7 c-105 4 -196 10 -204 13 -17 6
-17 100 -4 962 5 356 13 607 19 610 13 8 339 1 376 -8z m481 -24 c9 -10 0
-927 -15 -1551 l-1 -29 -197 7 c-133 5 -202 11 -210 19 -9 9 -10 185 -2 772 6
418 12 771 15 784 l5 24 197 -7 c133 -5 201 -11 208 -19z m287 -19 c64 -28
129 -101 151 -172 17 -52 17 -97 6 -718 -6 -365 -13 -669 -16 -677 -4 -12 -36
-13 -197 -7 -105 4 -196 11 -200 15 -13 13 13 1563 26 1580 16 19 168 5 230
-21z m-3743 -1016 c625 -27 1142 -52 1149 -57 12 -7 13 -48 7 -243 -3 -130 -9
-238 -11 -241 -6 -5 -2515 107 -2605 117 l-65 7 0 120 c0 101 4 127 22 166 37
82 107 147 183 170 43 13 152 9 1320 -39z m1406 -88 c110 -52 187 -176 188
-299 l1 -70 -165 3 c-104 2 -169 7 -178 15 -11 9 -13 46 -10 187 1 96 7 181
12 188 12 19 87 7 152 -24z m-2682 -444 c131 -7 192 -14 198 -23 10 -15 10
-567 0 -622 l-7 -40 -200 -57 c-110 -32 -210 -58 -222 -58 l-23 0 0 398 c0
219 3 402 7 405 8 9 21 9 247 -3z m2589 -7 c-7 -2 -21 -2 -30 0 -10 3 -4 5 12
5 17 0 24 -2 18 -5z m-2058 -18 c88 -4 168 -9 178 -11 16 -5 17 -26 17 -249 0
-223 -2 -245 -17 -253 -39 -20 -433 -124 -448 -119 -13 6 -15 46 -15 307 0
195 4 308 11 321 9 18 17 20 62 15 29 -3 124 -8 212 -11z m2158 8 c-13 -2 -35
-2 -50 0 -16 2 -5 4 22 4 28 0 40 -2 28 -4z m105 0 c-16 -2 -40 -2 -55 0 -16
2 -3 4 27 4 30 0 43 -2 28 -4z m1287 -48 c545 -25 1008 -46 1030 -47 46 -3 57
-28 27 -65 l-17 -22 -1055 49 c-580 27 -1058 50 -1062 50 -11 0 -20 39 -13 60
5 16 15 20 54 20 26 0 492 -20 1036 -45z m-3006 15 c121 -7 177 -14 183 -22
10 -17 10 -289 0 -306 -9 -13 -421 -132 -459 -132 l-23 0 0 228 c0 126 3 232
7 235 9 9 85 8 292 -3z m591 -28 l125 -7 3 -73 c3 -67 1 -73 -20 -82 -13 -6
-117 -37 -233 -69 -161 -45 -213 -56 -224 -47 -11 9 -13 36 -7 144 3 74 8 138
11 143 3 5 54 6 113 3 59 -3 163 -9 232 -12z m523 -29 c5 -3 5 -9 0 -14 -13
-13 -294 -90 -317 -87 -23 3 -33 49 -21 96 l6 25 162 -8 c89 -4 166 -9 170
-12z m-2045 -969 l52 -6 0 -319 c0 -202 -4 -320 -10 -324 -10 -6 -344 11 -407
21 l-33 5 0 290 c0 282 1 292 22 321 l21 31 151 -7 c83 -4 175 -9 204 -12z
m413 -23 c80 -4 151 -11 158 -15 15 -10 16 -632 0 -642 -16 -9 -442 17 -456
29 -18 13 -19 617 -1 635 8 8 35 10 82 6 39 -3 137 -8 217 -13z m537 -30 c79
-5 148 -13 153 -18 6 -6 8 -135 7 -324 l-3 -314 -160 3 c-88 2 -194 6 -235 10
l-75 7 -3 315 c-1 173 0 321 3 327 3 10 25 12 87 8 46 -4 147 -10 226 -14z
m539 -31 c78 -4 147 -12 154 -16 9 -5 10 -82 5 -323 -4 -174 -11 -319 -15
-323 -7 -8 -446 18 -462 27 -10 7 -13 638 -2 649 4 3 45 4 92 1 47 -3 150 -10
228 -15z m530 -29 c83 -5 157 -12 164 -16 9 -6 11 -82 6 -327 -3 -176 -8 -322
-11 -325 -8 -9 -449 19 -470 29 -18 10 -18 25 -14 322 2 171 8 317 12 324 5 9
29 11 84 7 42 -3 145 -10 229 -14z m251 -123 c-2 -70 -7 -103 -15 -106 -10 -3
-13 22 -13 102 0 89 3 106 15 106 13 0 15 -16 13 -102z m388 86 c13 -2 31 -20
42 -43 20 -37 20 -51 15 -330 l-6 -291 -55 0 c-110 0 -397 23 -409 32 -10 8
-13 54 -13 167 0 110 4 162 13 174 9 12 31 17 82 19 80 3 93 19 56 69 -18 24
-21 43 -21 117 0 49 3 92 7 96 7 7 247 -1 289 -10z"/>
</g>
</svg>
